<svg xmlns="http://www.w3.org/2000/svg" viewBox="0 0 192 192" width="192" height="192">
	<style>
		tspan { white-space:pre }
		.shp0 { fill: #6b0732 } 
	</style>
	<path id="Path 0" class="shp0" d="M121.34 14.75C117.52 19.01 113.32 24.07 111.99 26C110.67 27.93 108.78 32.09 107.79 35.25C106.81 38.41 106 42.91 105.99 45.25C105.99 47.59 106.73 50.63 107.65 52C108.56 53.38 110.48 55.78 111.9 57.34C113.33 58.9 116.3 61.11 118.5 62.25C121.12 63.6 124.4 64.32 128 64.32C131.55 64.32 134.92 63.6 137.5 62.29C139.7 61.17 143.04 58.51 144.92 56.38C146.8 54.25 148.94 51.04 149.67 49.25C150.4 47.46 151 43.75 151 41C151 38.12 150.21 34.41 149.13 32.25C148.1 30.19 143.9 25.13 139.8 21C134.74 15.91 132.12 12.46 131.67 10.25C131.3 8.46 130.39 7 129.64 7C128.89 7 125.15 10.49 121.34 14.75ZM67.54 13.75C65.14 16.36 61.55 20.3 59.56 22.5C57.58 24.7 54.77 28.98 53.32 32C51.53 35.74 50.54 39.75 50.22 44.5C49.78 51.22 49.89 51.68 53.13 55.94C55.18 58.65 58.65 61.5 62 63.22C65.74 65.16 68.94 66.05 72 66.01C74.47 65.98 78.3 65.14 80.5 64.13C82.7 63.13 86.27 60.33 88.43 57.91C90.59 55.48 92.96 52.04 93.68 50.25C94.41 48.46 95 44.86 94.99 42.25C94.98 38.84 94.16 36.08 92.09 32.5C90.5 29.75 86.46 24.91 83.1 21.75C79.75 18.59 76.33 14.43 75.5 12.5C74.67 10.57 73.53 9 72.96 9C72.38 9 69.95 11.14 67.54 13.75ZM15.86 50.25C11.09 55.61 6.57 61.82 5.14 65C3.63 68.35 2.5 73.05 2.23 77C1.83 83.02 2.03 83.81 4.9 87.75C6.61 90.09 9.88 93.24 12.18 94.75C15.28 96.78 17.95 97.6 22.43 97.89C27.66 98.23 29.24 97.89 33.85 95.39C36.79 93.8 40.21 91.15 41.45 89.5C42.69 87.85 44.45 85.04 45.35 83.25C46.26 81.46 46.99 77.86 46.98 75.25C46.97 72.64 46.13 68.7 45.12 66.5C44.11 64.3 40.15 59.35 36.31 55.5C32.48 51.65 28.59 46.81 27.67 44.75C26.75 42.69 25.58 41 25.06 41C24.54 41 20.4 45.16 15.86 50.25ZM160.69 51.25C156.92 55.24 152.76 60.08 151.45 62C150.14 63.92 148.14 68.2 147.02 71.5C145.89 74.8 144.97 79.3 144.97 81.5C144.97 84.23 145.93 87.01 147.99 90.25C149.64 92.86 152.88 96.24 155.19 97.75C158.15 99.69 161.01 100.61 164.94 100.88C168 101.09 172.3 100.67 174.5 99.95C176.7 99.23 180.31 96.8 182.52 94.57C184.73 92.33 187.38 88.7 188.41 86.5C189.46 84.26 190.24 80.52 190.18 78C190.12 75.53 189.32 71.7 188.4 69.5C187.48 67.3 183.64 62.46 179.87 58.75C176.09 55.04 172.1 50.2 171 48C169.9 45.8 168.67 44 168.27 44C167.87 44 164.46 47.26 160.69 51.25ZM82 73.56C78.42 74.32 71.79 76.76 67.25 78.98C61.78 81.65 56.78 85.1 52.4 89.25C48.77 92.69 44.19 97.97 42.21 101C40.24 104.03 37.35 109.65 35.79 113.5C34.23 117.35 32.97 120.61 32.98 120.75C32.99 120.89 39.19 120.99 46.75 120.98L60.5 120.97C82.24 99.78 85.72 96.99 87.8 96.96C89.28 96.93 91.5 97.72 92.72 98.71C94.19 99.9 96.87 106.04 100.72 117C103.9 126.08 106.95 133.48 107.5 133.47C108.05 133.45 110.08 131.12 112 128.29C113.92 125.46 116.51 122.67 117.75 122.08C119.12 121.42 127.65 121 139.5 121L159 121C158.13 117.51 156.04 112.67 153.8 108C150.53 101.21 148.09 97.88 141.61 91.42C135.19 85.03 131.72 82.48 125 79.24C120.33 76.98 113.01 74.43 108.75 73.57C104.49 72.7 98.19 72.04 94.75 72.08C91.31 72.12 85.58 72.79 82 73.56ZM75 121.48L66.5 129.93L32 130C31.98 137.36 32.71 141.97 33.6 145C34.49 148.03 36.27 152.3 37.56 154.5C38.85 156.7 41.97 160.53 44.5 163L49.09 167.5L142.5 167.6C149.31 161.32 152.41 157.7 153.79 155.5C155.18 153.3 157.09 149.25 158.04 146.5C158.99 143.75 159.86 139.47 159.98 137C160.09 134.53 160.14 131.94 160.09 131.25C160.02 130.29 155.78 130.06 141.76 130.25L123.52 130.5C113.71 145.22 109.88 150.52 108.68 151.78C107.43 153.08 105.33 154.04 103.75 154.03C102.24 154.01 99.95 152.99 98.67 151.75C97.04 150.18 94.63 143.98 90.69 131.25C87.59 121.21 84.7 113.01 84.28 113.01C83.85 113.02 79.67 116.83 75 121.48Z" />
</svg>