<!DOCTYPE svg PUBLIC "-//W3C//DTD SVG 20010904//EN" "http://www.w3.org/TR/2001/REC-SVG-20010904/DTD/svg10.dtd">
<svg version="1.0" xmlns="http://www.w3.org/2000/svg" width="192px" height="192px" viewBox="0 0 1920 1920" preserveAspectRatio="xMidYMid meet">
<g id="layer101" fill="#6b0732" stroke="none">
 <path d="M432 1616 c-71 -76 -103 -149 -110 -248 l-4 -68 174 0 173 0 85 -85 c47 -47 88 -85 91 -85 4 0 31 71 60 158 59 180 81 227 110 243 38 20 70 -5 147 -116 l73 -105 186 0 186 0 -5 68 c-7 91 -42 167 -114 242 l-57 60 -467 0 -468 0 -60 -64z"/>
 <path d="M1052 1293 c-12 -27 -37 -93 -56 -145 -45 -125 -62 -157 -91 -170 -32 -14 -59 4 -198 135 l-104 97 -137 0 -137 0 6 -22 c4 -13 25 -61 47 -107 52 -109 168 -229 273 -283 121 -61 167 -73 295 -73 194 0 329 55 467 190 67 66 89 96 122 165 22 47 42 95 46 108 l6 22 -183 1 c-101 1 -190 1 -199 0 -18 -2 -58 34 -105 93 l-30 40 -22 -51z"/>
 <path d="M1590 999 c-43 -18 -89 -59 -116 -105 -23 -40 -26 -53 -21 -106 8 -85 52 -167 142 -265 42 -46 80 -83 85 -83 5 0 19 17 31 37 13 21 54 71 92 113 38 41 76 90 84 109 17 40 19 115 3 156 -18 48 -77 112 -123 134 -47 23 -133 27 -177 10z"/>
 <path d="M150 964 c-41 -18 -96 -68 -116 -106 -30 -57 -9 -178 44 -257 36 -53 160 -191 172 -191 5 0 16 13 25 30 8 16 47 65 85 107 92 103 114 147 108 221 -8 115 -113 212 -228 212 -30 -1 -71 -8 -90 -16z"/>
 <path d="M619 632 c-31 -16 -68 -46 -86 -71 -28 -36 -33 -51 -33 -95 0 -67 22 -139 58 -194 33 -49 158 -182 172 -182 5 0 17 14 26 32 9 17 47 64 84 103 81 86 110 138 110 200 0 59 -19 102 -67 155 -74 83 -169 102 -264 52z"/>
 <path d="M1217 638 c-45 -12 -129 -86 -147 -128 -18 -43 -7 -137 22 -202 27 -57 174 -231 200 -236 10 -2 19 8 26 25 5 16 46 71 91 122 45 51 86 103 91 117 17 43 12 125 -11 171 -28 57 -98 118 -154 132 -51 13 -66 13 -118 -1z"/>
 </g>

</svg>